<svg xmlns="http://www.w3.org/2000/svg" width="600" height="450" viewBox="0 0 600 450">
  <rect width="600" height="450" fill="#f0ece4"/>
  <rect x="60" y="60" width="480" height="330" rx="16" fill="#fff" stroke="#e8e2d8" stroke-width="2"/>
  <rect x="84" y="90" width="200" height="12" rx="6" fill="#10b981" opacity="0.25"/>
  <rect x="84" y="126" width="420" height="10" rx="5" fill="#1a2332" opacity="0.1"/>
  <rect x="84" y="148" width="380" height="8" rx="4" fill="#1a2332" opacity="0.07"/>
  <rect x="84" y="166" width="400" height="8" rx="4" fill="#1a2332" opacity="0.07"/>
  <rect x="84" y="200" width="420" height="44" rx="10" fill="#d1fae5" opacity="0.6" stroke="#10b981" stroke-width="1" stroke-opacity="0.3"/>
  <rect x="104" y="214" width="16" height="16" rx="8" fill="#10b981" opacity="0.3"/>
  <rect x="132" y="218" width="280" height="8" rx="4" fill="#065f46" opacity="0.2"/>
  <rect x="84" y="264" width="160" height="10" rx="5" fill="#00838F" opacity="0.15"/>
  <rect x="84" y="288" width="340" height="8" rx="4" fill="#1a2332" opacity="0.07"/>
  <rect x="84" y="306" width="300" height="8" rx="4" fill="#1a2332" opacity="0.07"/>
  <rect x="84" y="324" width="260" height="8" rx="4" fill="#1a2332" opacity="0.07"/>
  <text x="300" y="380" text-anchor="middle" font-family="sans-serif" font-size="13" fill="#718096">Follow-Up — screenshot placeholder</text>
</svg>