<svg xmlns="http://www.w3.org/2000/svg" width="600" height="450" viewBox="0 0 600 450">
  <rect width="600" height="450" fill="#f0ece4"/>
  <rect x="60" y="60" width="480" height="330" rx="16" fill="#fff" stroke="#e8e2d8" stroke-width="2"/>
  <rect x="84" y="90" width="180" height="12" rx="6" fill="#00838F" opacity="0.2"/>
  <rect x="84" y="126" width="60" height="8" rx="4" fill="#1FB6CC" opacity="0.3"/>
  <rect x="150" y="120" width="360" height="28" rx="8" fill="#E0F7FA" opacity="0.5"/>
  <rect x="160" y="130" width="280" height="8" rx="4" fill="#1a2332" opacity="0.1"/>
  <rect x="84" y="170" width="60" height="8" rx="4" fill="#718096" opacity="0.3"/>
  <rect x="150" y="164" width="360" height="28" rx="8" fill="#f8f6f1"/>
  <rect x="160" y="174" width="320" height="8" rx="4" fill="#1a2332" opacity="0.08"/>
  <rect x="84" y="214" width="60" height="8" rx="4" fill="#1FB6CC" opacity="0.3"/>
  <rect x="150" y="208" width="360" height="28" rx="8" fill="#E0F7FA" opacity="0.5"/>
  <rect x="160" y="218" width="300" height="8" rx="4" fill="#1a2332" opacity="0.1"/>
  <rect x="84" y="258" width="60" height="8" rx="4" fill="#718096" opacity="0.3"/>
  <rect x="150" y="252" width="360" height="28" rx="8" fill="#f8f6f1"/>
  <rect x="160" y="262" width="260" height="8" rx="4" fill="#1a2332" opacity="0.08"/>
  <rect x="84" y="302" width="60" height="8" rx="4" fill="#1FB6CC" opacity="0.3"/>
  <rect x="150" y="296" width="360" height="28" rx="8" fill="#E0F7FA" opacity="0.5"/>
  <rect x="160" y="306" width="340" height="8" rx="4" fill="#1a2332" opacity="0.1"/>
  <text x="300" y="380" text-anchor="middle" font-family="sans-serif" font-size="13" fill="#718096">Transcript — screenshot placeholder</text>
</svg>